<?xml version="1.0" encoding="UTF-8"?>
<svg id="Layer_1" data-name="Layer 1" xmlns="http://www.w3.org/2000/svg" viewBox="0 0 60 60">
  <defs>
    <style>
      .cls-1 {
        fill: #d8453c;
        stroke-width: 0px;
      }
    </style>
  </defs>
  <g id="U6wKjE">
    <g>
      <path class="cls-1" d="m28.64,6c6.76,0,13.52,0,20.28,0,2.06,0,3.74,1.67,3.74,3.74,0,9.75,0,19.5,0,29.25,0,.5-.4.9-.9.9h0c-.5,0-.9-.4-.9-.9,0-8.97,0-17.93,0-26.9,0-.86.02-1.73,0-2.59-.02-.98-.69-1.64-1.66-1.7-.13,0-.25,0-.38,0-9.17,0-18.34,0-27.5,0-.13,0-.25,0-.38,0-.91.05-1.59.63-1.66,1.53-.06.78-.01,1.57-.01,2.44.3,0,.53,0,.76,0,6.23,0,12.47,0,18.7,0,2.13,0,3.86,1.73,3.86,3.86,0,10.03,0,20.06,0,30.09v.68c.26,0,.45,0,.65,0,1.82,0,3.63,0,5.45,0,1.33,0,1.96-.2,2.13-1.18.07-.41.46-.69.88-.69h0c.59,0,.99.57.83,1.13-.43,1.54-1.74,2.53-3.51,2.53-1.92,0-3.85,0-5.77,0-.19,0-.39,0-.65,0,0,.69,0,1.33,0,1.97,0,2.11-1.71,3.83-3.83,3.83-9.19,0-18.38,0-27.57,0-2.12,0-3.83-1.72-3.83-3.83,0-11.54,0-23.08,0-34.62,0-2.06,1.66-3.75,3.73-3.76,1.89-.01,3.78,0,5.67,0,.21,0,.42,0,.7,0,0-.7,0-1.35,0-1.99,0-2.09,1.7-3.79,3.79-3.79,1.42,0,2.85,0,4.27,0m-16.35,26.86c0,5.77,0,11.54,0,17.32,0,1.38.63,2.01,2.01,2.01,9.19,0,18.38,0,27.56,0,1.4,0,2.04-.64,2.04-2.04,0-11.51,0-23.02,0-34.52,0-1.4-.65-2.05-2.05-2.05-9.19,0-18.38,0-27.56,0-1.35,0-2.01.66-2.01,2.02,0,5.75,0,11.51,0,17.26Z"/>
      <path class="cls-1" d="m24.77,30.81c-3.29,0-6.58,0-9.87,0-.16,0-.33.02-.48-.01-.47-.08-.75-.37-.78-.83-.03-.46.21-.79.66-.92.15-.04.32-.05.48-.05,6.67,0,13.33,0,20,0,.09,0,.18,0,.27,0,.56.05.91.43.88.95-.02.49-.38.85-.93.85-1.53.01-3.05,0-4.58,0-1.89,0-3.77,0-5.66,0Z"/>
      <path class="cls-1" d="m24.82,36.86c3.29,0,6.58,0,9.86,0,.16,0,.33-.02.48,0,.44.07.72.33.76.78.05.47-.15.81-.61.95-.2.06-.42.06-.64.06-6.59,0-13.19,0-19.78,0-.21,0-.44,0-.64-.06-.44-.13-.65-.46-.62-.9.03-.46.3-.76.77-.83.16-.02.32,0,.48,0,3.31,0,6.61,0,9.92,0Z"/>
      <path class="cls-1" d="m24.75,46.49c-3.27,0-6.54,0-9.81,0-.18,0-.36,0-.54-.01-.45-.06-.79-.44-.77-.89.03-.46.27-.78.74-.86.18-.03.36-.02.54-.02,6.57,0,13.15,0,19.72,0,.2,0,.4-.01.59.03.46.1.71.4.71.88,0,.48-.26.77-.73.86-.17.03-.36.02-.54.02-3.31,0-6.61,0-9.92,0Z"/>
      <path class="cls-1" d="m24.82,21.17c3.29,0,6.58,0,9.86,0,.18,0,.36,0,.54.02.47.09.72.39.72.87,0,.48-.25.77-.72.87-.16.03-.32.02-.48.02-6.59,0-13.19,0-19.78,0-.18,0-.36.01-.54,0-.45-.05-.8-.43-.78-.88.02-.46.25-.78.73-.87.16-.03.32-.02.48-.02,3.32,0,6.65,0,9.97,0Z"/>
    </g>
  </g>
</svg>