<?xml version="1.0" encoding="UTF-8"?>
<svg id="Layer_1" data-name="Layer 1" xmlns="http://www.w3.org/2000/svg" viewBox="0 0 60 60">
  <defs>
    <style>
      .cls-1 {
        fill: #489da2;
        stroke-width: 0px;
      }
    </style>
  </defs>
  <g id="UpXdqf">
    <path class="cls-1" d="m25.81,36.35c-.36,0-.85-.06-1.23-.44-.46-.46-.45-1.08-.44-1.29,0-1.85,0-3.7,0-5.56,0-2.65-.01-5.3.02-7.95,0-.09,0-.18.01-.28.11-4.99,2.36-9.47,6.17-12.3,1.82-1.35,3.91-2.28,6.21-2.76,4.31-.9,8.8.11,12.32,2.76,2.66,2,4.55,4.74,5.48,7.93.17.59.3,1.14.39,1.65.44,2.49.3,4.92-.4,7.26,0,0,0,0,0,0-1.12,3.71-3.62,6.84-7.04,8.81-.7.4-1.38.73-2.03.98-.79.32-1.65.58-2.52.77-1.02.23-2.12.35-3.38.37-1.61.04-3.23.03-4.85.03h-3.78c-1.63-.01-3.26-.02-4.88,0-.02,0-.05,0-.07,0Zm2.99-1.95c.66,0,1.31,0,1.97,0h3.78c1.6.01,3.21.02,4.8-.02,1.11-.02,2.13-.13,3.01-.33.77-.17,1.52-.4,2.23-.68.56-.22,1.15-.5,1.76-.85,2.99-1.73,5.17-4.46,6.15-7.69.61-2.04.73-4.19.35-6.36-.08-.44-.2-.93-.35-1.46-.81-2.78-2.47-5.18-4.79-6.92-3.08-2.32-7-3.2-10.77-2.42-2.02.42-3.86,1.23-5.45,2.42-3.34,2.48-5.31,6.43-5.4,10.84,0,.04,0,.08,0,.11-.03,2.74-.03,5.38-.02,8.02,0,1.78,0,3.57,0,5.36.91-.01,1.82-.02,2.73-.02Zm24.63-9.29h.01-.01Z"/>
  </g>
  <path class="cls-1" d="m42.03,25.55c-.48,0-1-.27-1.28-.6-.34-.38-.64-.81-.93-1.22-.07-.1-.14-.2-.21-.29-.36.51-.71.99-1.11,1.46-.36.42-1.01.69-1.52.63-.55-.07-1.12-.6-1.27-1.14-.13-.5.09-1.09.33-1.48.31-.47.62-.9.96-1.35l-.73-.23c-.33-.11-.65-.22-.98-.33-.47-.16-.82-.47-1.01-.87-.18-.38-.19-.82-.03-1.24.29-.79,1.14-1.17,2.03-.9.57.18,1.14.36,1.73.55,0-.25,0-.49,0-.74,0-.37,0-.75,0-1.12,0-.47.16-.87.46-1.15.29-.28.65-.43,1.13-.42.88.01,1.51.65,1.52,1.56,0,.43,0,.85,0,1.28,0,.19,0,.39,0,.58l1.29-.41c.17-.06.34-.12.51-.16.86-.24,1.74.19,2,1,.27.86-.14,1.68-1,2,0,0,0,0,0,0-.33.12-.67.23-1,.34l-.43.14c-.11.03-.22.07-.34.11.34.46.66.89.96,1.34.25.39.5.94.36,1.44-.17.55-.68,1.04-1.2,1.17-.09.02-.18.03-.28.03Zm.12-1.51h0Zm1.57-3.72h0,0Z"/>
  <path class="cls-1" d="m46.84,47.32h-7.27c-.53,0-.97-.43-.97-.97v-7.27c0-.53.43-.97.97-.97h7.27c.53,0,.97.43.97.97v7.27c0,.53-.43.97-.97.97Zm-6.31-1.93h5.34v-5.34h-5.34v5.34Zm-6.42,1.93h-7.27c-.53,0-.97-.43-.97-.97v-7.27c0-.53.43-.97.97-.97h7.27c.53,0,.97.43.97.97v7.27c0,.53-.43.97-.97.97Zm-6.31-1.93h5.34v-5.34h-5.34v5.34Zm-6.6,1.93h-7.27c-.53,0-.97-.43-.97-.97v-7.27c0-.53.43-.97.97-.97h7.27c.53,0,.97.43.97.97v7.27c0,.53-.43.97-.97.97Zm-6.3-1.93h5.34v-5.34h-5.34v5.34Zm6.3-10.15h-7.27c-.53,0-.97-.43-.97-.97v-7.27c0-.53.43-.97.97-.97h7.27c.53,0,.97.43.97.97v7.27c0,.53-.43.97-.97.97Zm-6.3-1.93h5.34v-5.34h-5.34v5.34Z"/>
  <path class="cls-1" d="m25.13,21.87H5.97c-.53,0-.97-.43-.97-.97v-7.96c0-2.53,2.06-4.6,4.6-4.6h21.31c.42,0,.79.27.92.66.13.4,0,.83-.34,1.08-3.38,2.51-5.3,6.36-5.39,10.83-.01.53-.44.94-.97.94Zm-18.2-1.93h17.28c.28-3.71,1.75-7.09,4.17-9.66H9.6c-1.47,0-2.66,1.2-2.66,2.66v6.99Z"/>
  <path class="cls-1" d="m49.8,54.55H9.6c-2.54,0-4.6-2.06-4.6-4.6v-29.04c0-.53.43-.97.97-.97h19.17c.28,0,.55.12.73.33.18.21.27.49.23.77-.03,2.74-.03,5.38-.02,8.02,0,1.78,0,3.57,0,5.36,1.57-.02,3.13-.02,4.7-.01h3.78c1.6.02,3.21.02,4.8-.02,1.11-.02,2.13-.13,3.01-.33.77-.17,1.52-.4,2.23-.68.56-.22,1.15-.5,1.76-.85,2.99-1.73,5.17-4.46,6.15-7.7.14-.46.6-.74,1.07-.68.47.07.82.48.82.96v24.84c0,2.54-2.06,4.6-4.6,4.6ZM6.93,21.87v28.08c0,1.47,1.2,2.67,2.67,2.67h40.2c1.47,0,2.67-1.2,2.67-2.67v-20.56c-1.3,1.95-3.05,3.6-5.15,4.81-.7.4-1.38.73-2.03.98-.79.32-1.65.58-2.52.77-1.02.23-2.12.35-3.38.37-1.61.04-3.23.03-4.85.03h-3.78c-1.63-.01-3.26-.02-4.88,0-.37,0-.9-.03-1.31-.44-.46-.46-.45-1.08-.44-1.29,0-1.85,0-3.7,0-5.56,0-2.4,0-4.79.01-7.19H6.93Z"/>
  <g>
    <path class="cls-1" d="m21.21,35.24h-7.27c-.53,0-.97-.43-.97-.97v-7.27c0-.53.43-.97.97-.97h7.27c.53,0,.97.43.97.97v7.27c0,.53-.43.97-.97.97Zm-6.3-1.93h5.34v-5.34h-5.34v5.34Z"/>
    <path class="cls-1" d="m21.21,47.32h-7.27c-.53,0-.97-.43-.97-.97v-7.27c0-.53.43-.97.97-.97h7.27c.53,0,.97.43.97.97v7.27c0,.53-.43.97-.97.97Zm-6.3-1.93h5.34v-5.34h-5.34v5.34Z"/>
    <path class="cls-1" d="m34.11,47.32h-7.27c-.53,0-.97-.43-.97-.97v-7.27c0-.53.43-.97.97-.97h7.27c.53,0,.97.43.97.97v7.27c0,.53-.43.97-.97.97Zm-6.31-1.93h5.34v-5.34h-5.34v5.34Z"/>
    <path class="cls-1" d="m46.84,47.32h-7.27c-.53,0-.97-.43-.97-.97v-7.27c0-.53.43-.97.97-.97h7.27c.53,0,.97.43.97.97v7.27c0,.53-.43.97-.97.97Zm-6.31-1.93h5.34v-5.34h-5.34v5.34Z"/>
  </g>
</svg>