<svg width="17" height="19" viewBox="0 0 17 19" fill="none" xmlns="http://www.w3.org/2000/svg">
<path fill-rule="evenodd" clip-rule="evenodd" d="M0.680759 0C0.50021 0 0.327057 0.0717227 0.19939 0.19939C0.0717227 0.327057 0 0.50021 0 0.680759V15.5349C0 15.7155 0.0717227 15.8886 0.19939 16.0163C0.327057 16.144 0.50021 16.2157 0.680759 16.2157H12.9344C13.115 16.2157 13.2881 16.144 13.4158 16.0163C13.5435 15.8886 13.6152 15.7155 13.6152 15.5349V5.88039C13.6154 5.78899 13.5971 5.69848 13.5616 5.61427C13.526 5.53006 13.4739 5.45387 13.4082 5.39025L8.04793 0.194697C7.92115 0.0710841 7.75119 0.00173388 7.57412 0.00136158L0.680759 0ZM11.2543 5.19964L8.25488 2.29007V5.19964H11.2543ZM5.44607 6.06556H2.72304V4.70404H5.44607V6.06556ZM10.8921 9.46935H2.72304V8.10784H10.8921V9.46935ZM2.72304 12.8731H10.8921V11.5116H2.72304V12.8731Z" fill="#D8453C"/>
<path d="M14.9767 8.78864V17.6385H3.40381V19H15.6575C15.838 19 16.0112 18.9283 16.1388 18.8006C16.2665 18.673 16.3382 18.4998 16.3382 18.3193V8.78864H14.9767Z" fill="#D8453C"/>
</svg>
