<svg width="18" height="20" viewBox="0 0 18 20" fill="none" xmlns="http://www.w3.org/2000/svg">
<path d="M17.5737 6.26628H10.1164C9.88179 6.26628 9.69019 6.06996 9.69019 5.82957V0.468817C9.69019 0.228425 9.88179 0.0321045 10.1164 0.0321045H17.5737C17.8084 0.0321045 18 0.228425 18 0.468817V5.82957C18 6.06996 17.8084 6.26628 17.5737 6.26628ZM10.5388 5.39686H17.1475V0.90553H10.5388V5.39686Z" fill="#808080"/>
<path d="M7.88356 18.9991H0.426254C0.191625 18.9991 0 18.8027 0 18.5624V13.2016C0 12.9612 0.191625 12.7649 0.426254 12.7649H7.88356C8.11819 12.7649 8.30979 12.9612 8.30979 13.2016V18.5624C8.30979 18.8027 8.11819 18.9991 7.88356 18.9991ZM0.84857 18.1296H7.45731V13.6383H0.84857V18.1296Z" fill="#808080"/>
<path d="M17.5737 19.1753H10.1164C9.88179 19.1753 9.69019 18.979 9.69019 18.7386V7.94495C9.69019 7.70456 9.88179 7.50824 10.1164 7.50824H17.5737C17.8084 7.50824 18 7.70456 18 7.94495V15.7256C18 15.966 17.8084 16.1624 17.5737 16.1624C17.3391 16.1624 17.1475 15.966 17.1475 15.7256V8.37766H10.5388V18.2978H17.5737C17.8084 18.2978 18 18.4942 18 18.7346C18 18.975 17.8084 19.1713 17.5737 19.1713V19.1753Z" fill="#808080"/>
<path d="M7.88356 11.663H0.426254C0.191625 11.663 0 11.4667 0 11.2263V3.15315C0 2.91275 0.191625 2.71643 0.426254 2.71643C0.660884 2.71643 0.852484 2.91275 0.852484 3.15315V10.7936H7.46122V0.873425H0.426254C0.191625 0.873425 0 0.677105 0 0.436713C0 0.19632 0.191625 0 0.426254 0H7.88356C8.11819 0 8.30979 0.19632 8.30979 0.436713V11.2303C8.30979 11.4707 8.11819 11.667 7.88356 11.667V11.663Z" fill="#808080"/>
</svg>
