<svg width="19" height="20" viewBox="0 0 19 20" fill="none" xmlns="http://www.w3.org/2000/svg">
<path d="M11.6019 8.96975C11.3381 8.96975 11.0703 8.96975 10.8064 8.96168C10.1369 8.94958 9.84153 8.64292 9.82578 7.96101C9.8179 7.56155 9.82578 7.16613 9.82578 6.76667C9.82578 6.36721 9.82184 5.97179 9.82578 5.57233C9.83366 5.20515 9.73914 4.96708 9.30593 4.95901C8.86485 4.95094 8.73094 5.17287 8.73094 5.57233C8.73094 6.33897 8.73094 7.10157 8.73094 7.86821C8.73094 8.6631 8.43953 8.95765 7.65976 8.95765C6.88393 8.95765 6.10415 8.96975 5.32832 8.96975C4.99751 8.96975 4.86754 9.13115 4.85967 9.47009C4.84785 9.91393 5.05658 10.0673 5.45434 10.0673C6.23017 10.0673 7.00996 10.0632 7.78578 10.0673C8.43953 10.0713 8.727 10.3618 8.73094 11.0235C8.73488 11.8184 8.74669 12.6173 8.727 13.4122C8.71519 13.8278 8.86485 14.0498 9.27836 14.0578C9.69581 14.0659 9.8494 13.8561 9.83758 13.4324C9.81789 12.6537 9.82577 11.8709 9.83758 11.0921C9.84546 10.3376 10.1211 10.0673 10.8576 10.0632C11.6334 10.0632 12.4132 10.0592 13.189 10.0632C13.5553 10.0632 13.7128 9.89779 13.7167 9.5064C13.7167 9.11501 13.5671 8.95765 13.193 8.96168C12.6652 8.96975 12.1375 8.97379 11.6098 8.96975" fill="#808080"/>
<path d="M9.28238 19.0207C4.1627 19.0207 0 14.7558 0 9.51037C0 4.26494 4.1627 0 9.28238 0C10.9286 0 12.5432 0.447879 13.957 1.29118C14.1894 1.43241 14.2682 1.73906 14.1343 1.97712C14.0004 2.21519 13.6971 2.29589 13.4648 2.1587C12.2006 1.40416 10.7553 1.0047 9.28238 1.0047C4.70224 1.0047 0.976671 4.82176 0.976671 9.51441C0.976671 14.207 4.70224 18.0241 9.28238 18.0241C13.8625 18.0241 17.5881 14.207 17.5881 9.51441C17.5881 8.21112 17.3085 6.96028 16.7571 5.79822C16.639 5.54805 16.7414 5.24947 16.9816 5.12842C17.2258 5.00737 17.5172 5.11228 17.6353 5.35841C18.2536 6.65766 18.5648 8.05779 18.5648 9.51441C18.5648 14.7598 14.4021 19.0248 9.28238 19.0248V19.0207Z" fill="#808080"/>
</svg>
