<svg width="19" height="19" viewBox="0 0 19 19" fill="none" xmlns="http://www.w3.org/2000/svg">
<path fill-rule="evenodd" clip-rule="evenodd" d="M9.5 19C14.7467 19 19 14.7467 19 9.5C19 4.25329 14.7467 0 9.5 0C4.25329 0 0 4.25329 0 9.5C0 14.7467 4.25329 19 9.5 19ZM7.61818 4.79981C8.11727 4.2877 8.79418 4 9.5 4C10.2058 4 10.8827 4.2877 11.3818 4.79981C11.8809 5.31191 12.1613 6.00648 12.1613 6.73071C12.1613 7.45494 11.8809 8.1495 11.3818 8.66161C10.8827 9.17371 10.2058 9.46141 9.5 9.46141C8.79418 9.46141 8.11727 9.17371 7.61818 8.66161C7.11909 8.1495 6.83871 7.45494 6.83871 6.73071C6.83871 6.00648 7.11909 5.31191 7.61818 4.79981ZM4.77947 11.7176C5.27856 11.2055 5.95547 10.9178 6.66129 10.9178H6.90329C7.03411 10.9183 7.16408 10.9394 7.28864 10.9804L7.90323 11.1865C8.9408 11.5341 10.0592 11.5341 11.0968 11.1865L11.7114 10.9804C11.8363 10.9392 11.9649 10.9183 12.0974 10.9178H12.3387C13.0445 10.9178 13.7214 11.2055 14.2205 11.7176C14.7196 12.2297 15 12.9243 15 13.6485V14.5136C14.9996 14.7791 14.9073 15.0359 14.7397 15.2382C14.572 15.4405 14.3399 15.5751 14.0845 15.6182C11.0485 16.1273 7.95148 16.1273 4.91548 15.6182C4.38748 15.5301 4 15.0626 4 14.5136V13.6485C4 12.9243 4.28039 12.2297 4.77947 11.7176Z" fill="#808080"/>
</svg>
