<svg width="15" height="19" viewBox="0 0 15 19" fill="none" xmlns="http://www.w3.org/2000/svg">
<path fill-rule="evenodd" clip-rule="evenodd" d="M4.23913 1.35714C4.23913 0.997206 4.37655 0.652012 4.62117 0.397498C4.86578 0.142984 5.19754 0 5.54348 0L9.45652 0C9.80246 0 10.1342 0.142984 10.3788 0.397498C10.6234 0.652012 10.7609 0.997206 10.7609 1.35714V2.03571C10.7609 2.39565 10.6234 2.74085 10.3788 2.99536C10.1342 3.24987 9.80246 3.39286 9.45652 3.39286H5.54348C5.19754 3.39286 4.86578 3.24987 4.62117 2.99536C4.37655 2.74085 4.23913 2.39565 4.23913 2.03571V1.35714ZM12.3913 1.35714H13.0435C13.5624 1.35714 14.06 1.57162 14.4269 1.95339C14.7939 2.33516 15 2.85295 15 3.39286V16.9643C15 17.5042 14.7939 18.022 14.4269 18.4038C14.06 18.7855 13.5624 19 13.0435 19H1.95652C1.43762 19 0.939971 18.7855 0.573052 18.4038C0.206133 18.022 0 17.5042 0 16.9643V3.39286C0 2.85295 0.206133 2.33516 0.573052 1.95339C0.939971 1.57162 1.43762 1.35714 1.95652 1.35714H2.6087V2.03571C2.6087 2.84557 2.9179 3.62226 3.46827 4.19492C4.01865 4.76757 4.76513 5.08929 5.54348 5.08929H9.45652C10.2349 5.08929 10.9813 4.76757 11.5317 4.19492C12.0821 3.62226 12.3913 2.84557 12.3913 2.03571V1.35714ZM6.15652 8.07229C6.15652 7.77779 6.38609 7.54029 6.66913 7.54029H8.33217C8.61391 7.54029 8.84348 7.77779 8.84348 8.07229V10.1894H10.8783C11.1613 10.1894 11.3896 10.4283 11.3896 10.7228V12.4531C11.3899 12.5231 11.3769 12.5924 11.3513 12.6572C11.3258 12.7219 11.2881 12.7807 11.2406 12.8301C11.193 12.8796 11.1365 12.9188 11.0743 12.9454C11.0121 12.972 10.9455 12.9855 10.8783 12.9851H8.84348V15.1023C8.844 15.1724 8.83114 15.2418 8.80564 15.3067C8.78014 15.3716 8.74252 15.4305 8.69496 15.4801C8.64739 15.5298 8.59083 15.5691 8.52855 15.5958C8.46628 15.6224 8.39953 15.636 8.33217 15.6356H6.66783C6.60047 15.636 6.53372 15.6224 6.47145 15.5958C6.40917 15.5691 6.35261 15.5298 6.30504 15.4801C6.25748 15.4305 6.21986 15.3716 6.19436 15.3067C6.16886 15.2418 6.156 15.1724 6.15652 15.1023V12.9851H4.12174C4.0545 12.9855 3.98785 12.972 3.92566 12.9454C3.86347 12.9188 3.80697 12.8796 3.75942 12.8301C3.71187 12.7807 3.67422 12.7219 3.64865 12.6572C3.62308 12.5924 3.61009 12.5231 3.61044 12.4531V10.7214C3.61044 10.4269 3.8387 10.1881 4.12174 10.1881H6.15652V8.07229Z" fill="#489DA2"/>
</svg>
