<svg width="16" height="20" viewBox="0 0 16 20" fill="none" xmlns="http://www.w3.org/2000/svg">
<path d="M11.7308 2.43079H13.8769C14.2564 2.43079 14.6203 2.58153 14.8886 2.84985C15.1569 3.11817 15.3077 3.48209 15.3077 3.86155V18.1692C15.3077 18.5487 15.1569 18.9126 14.8886 19.1809C14.6203 19.4493 14.2564 19.6 13.8769 19.6H2.43077C2.0513 19.6 1.68738 19.4493 1.41906 19.1809C1.15074 18.9126 1 18.5487 1 18.1692V3.86155C1 3.48209 1.15074 3.11817 1.41906 2.84985C1.68738 2.58153 2.0513 2.43079 2.43077 2.43079H4.57692" stroke="#808080" stroke-width="0.8" stroke-linecap="round" stroke-linejoin="round"/>
<path d="M10.3 1H6.00771C5.62825 1 5.26432 1.15074 4.996 1.41906C4.72768 1.68738 4.57694 2.0513 4.57694 2.43077V3.14615C4.57694 3.52562 4.72768 3.88954 4.996 4.15786C5.26432 4.42618 5.62825 4.57692 6.00771 4.57692H10.3C10.6795 4.57692 11.0434 4.42618 11.3117 4.15786C11.58 3.88954 11.7308 3.52562 11.7308 3.14615V2.43077C11.7308 2.0513 11.58 1.68738 11.3117 1.41906C11.0434 1.15074 10.6795 1 10.3 1ZM7.15662 7.73892C6.99345 7.73892 6.83696 7.80374 6.72158 7.91911C6.6062 8.03449 6.54139 8.19098 6.54139 8.35415V10.0811H4.81445C4.65128 10.0811 4.49479 10.1459 4.37942 10.2613C4.26404 10.3767 4.19922 10.5331 4.19922 10.6963V12.6922C4.19922 13.0313 4.47536 13.3075 4.81445 13.3075H6.54139V15.0344C6.54139 15.3735 6.81752 15.6496 7.15662 15.6496H9.15254C9.31571 15.6496 9.47219 15.5848 9.58757 15.4694C9.70295 15.3541 9.76777 15.1976 9.76777 15.0344V13.3046H11.4947C11.6579 13.3046 11.8144 13.2398 11.9297 13.1244C12.0451 13.009 12.1099 12.8525 12.1099 12.6894V10.6963C12.1096 10.5334 12.0446 10.3773 11.9292 10.2622C11.8139 10.1471 11.6576 10.0825 11.4947 10.0825H9.76777V8.35272C9.76739 8.18979 9.7024 8.03368 9.58707 7.91861C9.47173 7.80354 9.31546 7.73892 9.15254 7.73892H7.15662Z" stroke="#808080" stroke-width="0.8" stroke-linecap="round" stroke-linejoin="round"/>
</svg>
