<svg width="19" height="19" viewBox="0 0 19 19" fill="none" xmlns="http://www.w3.org/2000/svg">
<path fill-rule="evenodd" clip-rule="evenodd" d="M9.5 19C14.7467 19 19 14.7467 19 9.5C19 4.25329 14.7467 0 9.5 0C4.25329 0 0 4.25329 0 9.5C0 14.7467 4.25329 19 9.5 19ZM10.9472 8.96168C11.2111 8.96975 11.4789 8.96975 11.7427 8.96975H11.7506C12.2783 8.97379 12.806 8.96975 13.3338 8.96168C13.7079 8.95765 13.8575 9.11501 13.8575 9.5064C13.8536 9.89779 13.6961 10.0632 13.3298 10.0632C12.8125 10.0605 12.2933 10.0614 11.7748 10.0623C11.5158 10.0628 11.2569 10.0632 10.9984 10.0632C10.262 10.0673 9.98627 10.3376 9.97839 11.0921C9.96658 11.8709 9.9587 12.6537 9.97839 13.4324C9.9902 13.8561 9.83662 14.0659 9.41917 14.0578C9.00566 14.0498 8.85599 13.8278 8.86781 13.4122C8.88357 12.7759 8.87915 12.1371 8.87474 11.4997C8.87364 11.3409 8.87254 11.1821 8.87175 11.0235C8.86781 10.3618 8.58034 10.0713 7.92659 10.0673C7.40923 10.0646 6.8901 10.0655 6.37156 10.0664C6.11252 10.0668 5.85361 10.0673 5.59515 10.0673C5.19739 10.0673 4.98866 9.91393 5.00048 9.47009C5.00835 9.13115 5.13831 8.96975 5.46912 8.96975C5.85704 8.96975 6.24594 8.96673 6.63485 8.9637C7.02375 8.96067 7.41265 8.95765 7.80057 8.95765C8.58033 8.95765 8.87175 8.6631 8.87175 7.86821V5.57233C8.87175 5.17287 9.00566 4.95094 9.44674 4.95901C9.87994 4.96708 9.97446 5.20515 9.96659 5.57233C9.96396 5.83848 9.96484 6.10285 9.96571 6.36781C9.96615 6.50051 9.96659 6.63337 9.96659 6.76667C9.96659 6.89997 9.96571 7.03283 9.96483 7.16553C9.96309 7.43049 9.96134 7.69486 9.96659 7.96101C9.98234 8.64292 10.2777 8.94958 10.9472 8.96168Z" fill="#EC963F"/>
</svg>
