<svg width="11" height="11" viewBox="0 0 11 11" fill="none" xmlns="http://www.w3.org/2000/svg">
<path d="M9.1607 7.4398L7.7489 7.27861C7.58289 7.25911 7.41462 7.27749 7.25674 7.33236C7.09886 7.38724 6.95546 7.47718 6.83733 7.59543L5.8146 8.61817C4.23682 7.81551 2.95433 6.53302 2.15168 4.95522L3.17997 3.92693C3.41897 3.68792 3.5357 3.35442 3.49679 3.01536L3.3356 1.61466C3.3042 1.34347 3.17411 1.0933 2.97012 0.911864C2.76613 0.730423 2.5025 0.630392 2.2295 0.630838H1.26791C0.63982 0.630838 0.117339 1.15332 0.156247 1.78141C0.450837 6.52823 4.24716 10.319 8.9884 10.6136C9.61649 10.6525 10.139 10.13 10.139 9.50194V8.54035C10.1445 7.97896 9.72209 7.5065 9.1607 7.4398Z" fill="black" fill-opacity="0.75"/>
</svg>
