<?xml version="1.0" encoding="UTF-8"?>
<svg id="Layer_1" data-name="Layer 1" xmlns="http://www.w3.org/2000/svg" viewBox="0 0 60 60">
  <defs>
    <style>
      .cls-1 {
        fill: #ec963f;
        stroke-width: 0px;
      }
    </style>
  </defs>
  <g id="EFVmm4">
    <path class="cls-1" d="m36.24,28.58c-.71,0-1.43,0-2.14-.02-1.8-.03-2.6-.84-2.64-2.62-.03-1.05,0-2.09,0-3.14h0c0-1.05-.01-2.09,0-3.14.02-.97-.23-1.59-1.4-1.61-1.19-.02-1.55.56-1.55,1.61,0,2.01,0,4.02,0,6.03,0,2.09-.78,2.86-2.88,2.86-2.09,0-4.19.03-6.28.03-.89,0-1.24.43-1.27,1.31-.04,1.16.54,1.57,1.6,1.57,2.09,0,4.19-.01,6.28,0,1.76.01,2.53.77,2.55,2.52.02,2.09.04,4.19-.01,6.28-.03,1.09.37,1.68,1.48,1.7,1.12.03,1.53-.53,1.5-1.64-.06-2.05-.03-4.1,0-6.16.02-1.98.76-2.7,2.75-2.71,2.09,0,4.19-.01,6.28,0,.99,0,1.41-.44,1.42-1.46,0-1.03-.4-1.44-1.41-1.43-1.42.02-2.84.03-4.27.02"/>
  </g>
  <path class="cls-1" d="m30,55c-13.79,0-25-11.21-25-25S16.21,5,30,5c4.43,0,8.78,1.17,12.59,3.39.63.37.84,1.17.47,1.8-.37.63-1.17.84-1.8.47-3.4-1.99-7.3-3.04-11.26-3.04-12.33,0-22.37,10.03-22.37,22.37s10.03,22.37,22.37,22.37,22.37-10.03,22.37-22.37c0-3.43-.75-6.71-2.24-9.77-.32-.65-.05-1.44.61-1.76.65-.32,1.44-.05,1.76.61,1.66,3.42,2.51,7.09,2.51,10.92,0,13.78-11.21,25-25,25Z"/>
</svg>