<?xml version="1.0" encoding="UTF-8"?>
<svg id="Layer_1" data-name="Layer 1" xmlns="http://www.w3.org/2000/svg" viewBox="0 0 60 60">
    <defs>
        <style>
            .cls-1 {
            stroke-width: 0px;
            }
        </style>
    </defs>
    <path class="cls-1"
        d="m52.91,21.33h-19.93c-.63,0-1.13-.51-1.13-1.13V6.22c0-.63.51-1.13,1.13-1.13h19.93c.63,0,1.13.51,1.13,1.13v13.98c0,.63-.51,1.13-1.13,1.13Zm-18.79-2.27h17.66V7.35h-17.66v11.71Z" />
    <path class="cls-1"
        d="m27.02,54.55H7.09c-.63,0-1.13-.51-1.13-1.13v-13.99c0-.63.51-1.13,1.13-1.13h19.93c.63,0,1.13.51,1.13,1.13v13.99c0,.63-.51,1.13-1.13,1.13Zm-18.79-2.27h17.66v-11.72H8.23v11.72Z" />
    <path class="cls-1"
        d="m52.91,55h-19.93c-.63,0-1.13-.51-1.13-1.13v-28.14c0-.63.51-1.13,1.13-1.13h19.93c.63,0,1.13.51,1.13,1.13v20.3c0,.63-.51,1.13-1.13,1.13s-1.13-.51-1.13-1.13v-19.16h-17.66v25.88h18.79c.63,0,1.13.51,1.13,1.13s-.51,1.13-1.13,1.13Z" />
    <path class="cls-1"
        d="m27.02,35.41H7.09c-.63,0-1.13-.51-1.13-1.13V13.22c0-.63.51-1.13,1.13-1.13s1.13.51,1.13,1.13v19.92h17.66V7.27H7.09c-.63,0-1.13-.51-1.13-1.13s.51-1.13,1.13-1.13h19.93c.63,0,1.13.51,1.13,1.13v28.14c0,.63-.51,1.13-1.13,1.13Z" />
</svg>