<svg width="18" height="18" viewBox="0 0 18 18" fill="none" xmlns="http://www.w3.org/2000/svg">
<path d="M5.66468 1.55218H5.49448C5.58809 1.55218 5.66468 1.47458 5.66468 1.37972V1.55218ZM5.66468 1.55218H12.1321V1.37972C12.1321 1.47458 12.2087 1.55218 12.3023 1.55218H12.1321V3.10437H13.6639V1.37972C13.6639 0.618718 13.0533 0 12.3023 0H5.49448C4.7435 0 4.13292 0.618718 4.13292 1.37972V3.10437H5.66468V1.55218ZM16.387 3.10437H1.40979C1.03323 3.10437 0.729004 3.41265 0.729004 3.79423V4.48409C0.729004 4.57895 0.805592 4.65655 0.8992 4.65655H2.18418L2.70966 15.9315C2.7437 16.6666 3.34364 17.2465 4.06909 17.2465H13.7277C14.4553 17.2465 15.0531 16.6687 15.0871 15.9315L15.6126 4.65655H16.8976C16.9912 4.65655 17.0678 4.57895 17.0678 4.48409V3.79423C17.0678 3.41265 16.7636 3.10437 16.387 3.10437ZM13.5639 15.6943H4.23291L3.71807 4.65655H14.0787L13.5639 15.6943Z" fill="black"/>
</svg>
