<svg width="512" height="511" viewBox="0 0 512 511" fill="none" xmlns="http://www.w3.org/2000/svg">
<path d="M472.556 320.36C465.512 320.36 459.805 326.068 459.805 333.112V446.331C459.779 467.45 442.669 484.565 421.55 484.585H63.7572C42.637 484.565 25.5284 467.45 25.5029 446.331V114.041C25.5284 92.9255 42.6383 75.8118 63.7572 75.7863H176.977C184.02 75.7863 189.729 70.0775 189.729 63.0349C189.729 55.9961 184.02 50.2834 176.977 50.2834H63.7572C28.5607 50.3229 0.0395295 78.8441 0 114.041V446.336C0.0395295 481.531 28.5607 510.052 63.7572 510.093H421.55C456.745 510.052 485.268 481.531 485.307 446.336V333.112C485.307 326.068 479.599 320.36 472.556 320.36Z" fill="black"/>
<path d="M480.257 17.4727C457.847 -4.93673 421.514 -4.93673 399.106 17.4727L171.61 244.967C170.053 246.525 168.926 248.458 168.338 250.581L138.422 358.585C137.818 360.76 137.803 363.056 138.377 365.238C138.951 367.421 140.094 369.412 141.69 371.008C143.285 372.604 145.276 373.748 147.458 374.323C149.641 374.898 151.937 374.883 154.111 374.28L262.116 344.359C264.239 343.771 266.172 342.644 267.729 341.087L495.218 113.588C517.593 91.162 517.593 54.8612 495.218 32.4365L480.257 17.4727ZM199.394 253.256L385.582 67.0643L445.629 127.111L259.437 313.302L199.394 253.256ZM187.4 277.324L235.371 325.302L169.015 343.687L187.4 277.324ZM477.189 95.5562L463.664 109.078L403.613 49.0261L417.142 35.5032C429.59 23.0553 449.773 23.0553 462.22 35.5032L477.189 50.4658C489.616 62.929 489.616 83.098 477.189 95.5562Z" fill="black"/>
</svg>
