<svg width="17" height="19" viewBox="0 0 17 19" fill="none" xmlns="http://www.w3.org/2000/svg">
<path d="M1.14374 17.3391H15.6671M2.65598 10.2472C2.26895 10.635 2.05155 11.1606 2.05145 11.7086V14.616H4.977C5.52526 14.616 6.05082 14.3981 6.43841 14.0096L15.0617 5.38182C15.4486 4.99387 15.6658 4.46832 15.6658 3.92041C15.6658 3.3725 15.4486 2.84695 15.0617 2.459L14.2102 1.60575C14.0182 1.41363 13.7902 1.26125 13.5393 1.15731C13.2883 1.05337 13.0193 0.999916 12.7477 1C12.4761 1.00008 12.2072 1.05371 11.9563 1.1578C11.7054 1.2619 11.4775 1.41442 11.2856 1.60666L2.65598 10.2472Z" stroke="black" stroke-width="1.36157" stroke-linecap="round" stroke-linejoin="round"/>
</svg>
