<svg width="10" height="8" viewBox="0 0 10 8" fill="none" xmlns="http://www.w3.org/2000/svg">
<path d="M8.5 0H1.5C1.10218 0 0.720644 0.158035 0.43934 0.43934C0.158035 0.720644 0 1.10218 0 1.5V6.5C0 6.89782 0.158035 7.27936 0.43934 7.56066C0.720644 7.84196 1.10218 8 1.5 8H8.5C8.89782 8 9.27936 7.84196 9.56066 7.56066C9.84196 7.27936 10 6.89782 10 6.5V1.5C10 1.10218 9.84196 0.720644 9.56066 0.43934C9.27936 0.158035 8.89782 0 8.5 0ZM8.5 1L5.25 3.235C5.17399 3.27888 5.08777 3.30199 5 3.30199C4.91223 3.30199 4.82601 3.27888 4.75 3.235L1.5 1H8.5Z" fill="black" fill-opacity="0.7"/>
</svg>
