<?xml version="1.0" encoding="UTF-8"?>
<svg id="Layer_1" data-name="Layer 1" xmlns="http://www.w3.org/2000/svg" viewBox="0 0 60 60">
  <defs>
    <style>
      .cls-1 {
        fill: #494d6b;
        stroke-width: 0px;
      }
    </style>
  </defs>
  <g>
    <path class="cls-1" d="m30.25,17.66c1.78.07,3.46.43,4.97,1.4,3.46,2.22,3.9,6.68.92,9.5-.79.75-1.58,1.5-2.42,2.19-1.14.95-1.92,2.07-2.18,3.57-.2,1.15-.76,1.61-1.69,1.67-1.36.09-2.22-.71-2.24-2.13-.02-1.69.52-3.19,1.74-4.38,1.13-1.11,2.38-2.11,3.44-3.28,1.64-1.8.77-4.37-1.59-4.92-2.03-.48-3.63.26-4.54,2.15-.28.59-.46,1.22-.73,1.81-.5,1.12-1.46,1.56-2.6,1.21-.98-.3-1.6-1.33-1.45-2.42.42-3.04,2.95-5.54,6.23-6.12.7-.12,1.42-.17,2.12-.26Z"/>
    <path class="cls-1" d="m29.95,42.34c-1.42-.02-2.4-1.02-2.4-2.42,0-1.43,1.06-2.44,2.5-2.43,1.42.02,2.44,1.1,2.4,2.53-.04,1.38-1.08,2.34-2.5,2.32Z"/>
  </g>
  <path class="cls-1" d="m30,55c-13.79,0-25-11.21-25-25S16.21,5,30,5c4.43,0,8.78,1.17,12.59,3.39.63.37.84,1.17.47,1.8-.37.63-1.18.84-1.8.47-3.4-1.99-7.3-3.04-11.26-3.04-12.33,0-22.37,10.03-22.37,22.37s10.03,22.37,22.37,22.37,22.37-10.03,22.37-22.37c0-3.43-.75-6.71-2.24-9.77-.32-.65-.05-1.44.61-1.76.66-.32,1.44-.04,1.76.61,1.66,3.42,2.51,7.09,2.51,10.92,0,13.78-11.21,25-25,25Z"/>
</svg>