<svg width="11" height="13" viewBox="0 0 11 13" fill="none" xmlns="http://www.w3.org/2000/svg">
<path d="M5.14661 0.0315475C2.39049 0.0315475 0.154205 1.86144 0.154205 4.11624C0.154205 7.74709 5.14661 12.7395 5.14661 12.7395C5.14661 12.7395 10.139 7.74709 10.139 4.11624C10.139 1.86144 7.90273 0.0315475 5.14661 0.0315475ZM5.14661 6.38552C4.75165 6.38552 4.36556 6.27905 4.03716 6.07957C3.70876 5.88009 3.4528 5.59656 3.30166 5.26483C3.15051 4.93311 3.11097 4.56809 3.18802 4.21593C3.26507 3.86377 3.45527 3.54029 3.73455 3.2864C4.01383 3.03251 4.36965 2.85961 4.75702 2.78956C5.1444 2.71951 5.54592 2.75546 5.91082 2.89287C6.27571 3.03027 6.5876 3.26296 6.80703 3.56151C7.02646 3.86005 7.14358 4.21104 7.14358 4.5701C7.143 5.05142 6.93242 5.51287 6.55804 5.85322C6.18366 6.19356 5.67606 6.385 5.14661 6.38552Z" fill="black" fill-opacity="0.75"/>
</svg>
