<svg width="44" height="44" viewBox="0 0 44 44" fill="none" xmlns="http://www.w3.org/2000/svg">
<g clip-path="url(#clip0_282_1923)">
<path d="M16.1335 43.9996C15.6935 43.9996 15.4001 43.7063 15.4001 43.2663C15.4001 41.2129 16.2801 39.4529 17.6001 38.5729C17.8935 38.4263 18.3335 38.4263 18.6268 38.8663C18.7735 39.1596 18.7735 39.5996 18.3335 39.8929C17.4535 40.3329 16.8668 41.7996 16.8668 43.2663C16.8668 43.7063 16.5735 43.9996 16.1335 43.9996ZM22.0001 43.9996C21.5601 43.9996 21.2668 43.7063 21.2668 43.2663V13.9329C21.2668 13.4929 21.5601 13.1996 22.0001 13.1996C22.4401 13.1996 22.7335 13.4929 22.7335 13.9329V43.2663C22.7335 43.7063 22.4401 43.9996 22.0001 43.9996Z" fill="black"/>
<path d="M24.935 36.6651C24.6417 36.6651 24.495 36.5185 24.3483 36.3718C24.055 36.0785 24.2017 35.6385 24.495 35.3451C26.8417 33.7318 28.015 32.2651 27.8683 31.0918C27.7217 29.3318 24.3483 28.1585 22.5883 27.4251C22.1483 27.2785 21.855 27.1318 21.5617 26.9851C21.1217 26.8385 20.975 26.3985 21.1217 25.9585C21.2683 25.5185 21.7083 25.3718 22.1483 25.5185L23.0283 25.9585C25.2283 26.8385 28.895 28.1585 29.1883 30.7985C29.335 32.5585 28.015 34.3185 25.2283 36.3718C25.2283 36.6651 25.0817 36.6651 24.935 36.6651Z" fill="black"/>
<path d="M27.8667 44.0002C27.4267 44.0002 27.1333 43.5602 27.1333 43.2669C27.1333 43.1202 27.28 39.7469 21.8533 38.1335C16.4267 36.5202 13.7867 34.7602 13.4933 32.7069C13.3467 31.0935 14.52 29.4802 17.3067 28.0135C17.6 27.8669 18.04 28.0135 18.3333 28.3069C18.48 28.6002 18.3333 29.0402 18.04 29.3335C15.9867 30.5069 14.96 31.6802 14.96 32.5602C15.1067 33.2935 16.1333 34.9069 22.2933 36.8135C29.04 38.7202 28.7467 43.2669 28.7467 43.4135C28.6 43.7069 28.3067 44.0002 27.8667 44.0002ZM22.2933 25.6669C20.24 24.7869 17.16 22.7335 16.8667 20.9735C16.72 20.3869 17.0133 19.9469 17.4533 19.5069C18.48 18.4802 18.3333 17.4535 17.6 16.8669C16.72 15.8402 14.8133 15.6935 13.4933 17.0135C12.32 18.1869 12.1733 19.3602 12.32 20.2402C13.0533 23.4669 18.7733 26.2535 21.4133 27.1335H21.8533C22.1467 27.2802 22.5867 26.9869 22.7333 26.6935C22.88 26.2535 22.7333 25.9602 22.2933 25.6669ZM29.92 17.0135C29.3333 16.4269 28.4533 15.9869 27.72 15.9869C26.6933 15.9869 25.8133 16.5735 25.3733 17.3069C25.08 18.0402 25.2267 18.7735 25.96 19.3602C26.4 19.8002 26.6933 20.2402 26.6933 20.5335C26.6933 21.2669 25.8133 22.1469 24.9333 23.0269L24.4933 23.4669C24.2 23.7602 24.2 24.0535 24.3467 24.3469C24.4933 24.6402 24.7867 24.6402 24.9333 24.6402H25.2267C28.4533 23.6135 30.6533 22.0002 31.0933 20.0935C31.24 19.6535 31.0933 18.3335 29.92 17.0135ZM22 10.2669C24.7867 10.2669 27.1333 7.9202 27.1333 5.13353C27.1333 2.34687 24.7867 0.000198364 22 0.000198364C19.2133 0.000198364 16.8667 2.34687 16.8667 5.13353C16.8667 7.9202 19.2133 10.2669 22 10.2669Z" fill="black"/>
<path d="M42.5399 10.267C40.7799 10.267 38.7265 9.09366 36.6732 8.06699C34.6199 6.89366 32.5665 5.86699 30.8065 5.86699C30.2199 5.86699 29.6332 6.01366 28.8999 6.16032C28.6065 6.16032 28.4599 6.45366 28.3132 6.74699C27.7265 9.68032 25.0865 11.7337 22.0065 11.7337C19.0732 11.7337 16.5799 9.82699 15.6999 7.04032C15.6999 6.74699 15.4065 6.60032 15.2599 6.60032C13.7932 6.16032 12.6199 5.86699 11.7399 5.86699C9.97987 5.86699 8.21987 7.04032 6.45987 8.06699C4.84654 9.09366 3.08653 10.267 1.4732 10.267C1.17987 10.267 0.739868 10.5603 0.739868 10.8537C0.739868 11.147 0.886535 11.587 1.17987 11.7337C1.32653 11.7337 10.7132 14.667 22.0065 14.667C33.2999 14.667 42.6865 11.7337 42.8332 11.7337C43.1265 11.587 43.4199 11.2937 43.2732 10.8537C43.2732 10.5603 42.8332 10.267 42.5399 10.267Z" fill="black"/>
</g>
<defs>
<clipPath id="clip0_282_1923">
<rect width="44" height="44" fill="white"/>
</clipPath>
</defs>
</svg>
