<svg width="19" height="19" viewBox="0 0 19 19" fill="none" xmlns="http://www.w3.org/2000/svg">
<circle cx="9.5" cy="9.5" r="9.5" fill="#808080"/>
<path d="M9.5 4C8.79418 4 8.11727 4.2877 7.61818 4.79981C7.11909 5.31191 6.83871 6.00648 6.83871 6.73071C6.83871 7.45494 7.11909 8.1495 7.61818 8.66161C8.11727 9.17371 8.79418 9.46141 9.5 9.46141C10.2058 9.46141 10.8827 9.17371 11.3818 8.66161C11.8809 8.1495 12.1613 7.45494 12.1613 6.73071C12.1613 6.00648 11.8809 5.31191 11.3818 4.79981C10.8827 4.2877 10.2058 4 9.5 4ZM6.66129 10.9178C5.95547 10.9178 5.27856 11.2055 4.77947 11.7176C4.28039 12.2297 4 12.9243 4 13.6485V14.5136C4 15.0626 4.38748 15.5301 4.91548 15.6182C7.95148 16.1273 11.0485 16.1273 14.0845 15.6182C14.3399 15.5751 14.572 15.4405 14.7397 15.2382C14.9073 15.0359 14.9996 14.7791 15 14.5136V13.6485C15 12.9243 14.7196 12.2297 14.2205 11.7176C13.7214 11.2055 13.0445 10.9178 12.3387 10.9178H12.0974C11.9649 10.9183 11.8363 10.9392 11.7114 10.9804L11.0968 11.1865C10.0592 11.5341 8.9408 11.5341 7.90323 11.1865L7.28864 10.9804C7.16408 10.9394 7.03411 10.9183 6.90329 10.9178H6.66129Z" fill="white"/>
</svg>
