<?xml version="1.0" encoding="UTF-8"?>
<svg id="Layer_1" data-name="Layer 1" xmlns="http://www.w3.org/2000/svg" viewBox="0 0 60 60">
  <defs>
    <style>
      .cls-1 {
        fill: #333;
        stroke-width: 0px;
      }
    </style>
  </defs>
  <g id="U6wKjE">
    <g>
      <path class="cls-1" d="m49.75,48.1c0,.43,0,.85,0,1.27,0,2.37-1.92,4.29-4.29,4.29-10.3,0-20.6,0-30.9,0-2.37,0-4.3-1.92-4.3-4.3,0-12.94,0-25.87,0-38.81,0-2.31,1.86-4.2,4.18-4.22,2.12-.02,4.24,0,6.35,0h3.67c6.99,0,13.98,0,20.97,0,2.39,0,4.33,1.94,4.33,4.33,0,11.24,0,22.49,0,33.73v3.7ZM12.29,29.97c0,6.47,0,12.94,0,19.41,0,1.54.71,2.25,2.25,2.25,10.3,0,20.6,0,30.9,0,1.57,0,2.29-.71,2.29-2.29,0-12.9,0-25.8,0-38.7,0-1.56-.73-2.29-2.3-2.29-10.3,0-20.6,0-30.9,0-1.52,0-2.25.74-2.25,2.27,0,6.45,0,12.9,0,19.35Z"/>
      <path class="cls-1" d="m29.84,34.45c3.69,0,7.37,0,11.06,0,.18,0,.37-.02.54.01.49.08.8.37.86.87.06.53-.17.91-.68,1.07-.22.07-.48.07-.72.07-7.39,0-14.78,0-22.17,0-.24,0-.49,0-.72-.07-.49-.14-.73-.51-.69-1,.03-.52.34-.85.87-.93.18-.03.36-.01.54-.01,3.71,0,7.41,0,11.12,0Z"/>
      <path class="cls-1" d="m41.44,24.75c.49.08.8.37.86.87.06.53-.17.91-.68,1.07-.22.07-.48.07-.72.07-7.39,0,.43,0-6.96,0-.24,0-.49,0-.72-.07-.49-.14-.73-.51-.69-1,.03-.52.34-.85.87-.93.18-.03.36-.01.54-.01,3.71,0,7.32-.02,7.5.01Z"/>
      <path class="cls-1" d="m29.77,45.25c-3.66,0-7.33,0-10.99,0-.2,0-.4,0-.6-.01-.51-.06-.89-.5-.86-1,.03-.52.3-.87.83-.97.2-.04.4-.03.6-.03,7.37,0,14.74,0,22.11,0,.22,0,.45-.01.66.03.52.11.8.45.79.99,0,.54-.29.87-.82.96-.2.04-.4.02-.6.02-3.7,0-7.41,0-11.11,0Z"/>
    </g>
  </g>
  <path class="cls-1" d="m23.97,19.19c.87,1.25,1.78,2.56,2.72,3.91.08-.12.15-.2.2-.29.51-.82,1-1.65,1.52-2.47.34-.54.98-.75,1.56-.53.55.2.9.76.82,1.36-.03.23-.14.47-.27.68-.65,1.03-1.3,2.05-1.97,3.06-.13.2-.14.34,0,.54.74,1.14,1.46,2.3,2.18,3.45.27.42.32.86.1,1.32-.22.45-.59.7-1.09.73-.57.04-1.05-.12-1.36-.63-.51-.85-1.02-1.69-1.53-2.54-.07-.11-.14-.23-.24-.39-.09.13-.16.23-.22.33-.52.84-1.04,1.68-1.55,2.53-.21.35-.5.61-.91.68-.55.09-1.01-.07-1.32-.54-.32-.48-.31-.98,0-1.46.69-1.09,1.39-2.18,2.11-3.26.19-.28.18-.46-.01-.74-1.14-1.63-2.25-3.28-3.38-4.92-.16-.23-.89-.4-1.12-.24-.07.05-.09.19-.09.29,0,.84,0,1.69,0,2.53-.01.69-.5,1.2-1.16,1.26-.82.08-1.42-.29-1.58-.99-.03-.14-.04-.29-.04-.43,0-2.78,0-5.55,0-8.33,0-.95.51-1.46,1.46-1.45,1.44.01,2.88.02,4.31.07.86.03,1.6.39,2.23,1,1.08,1.05.86,3.34.05,4.21-.41.44-.89.81-1.39,1.26Zm-3.86-1.41c.68-.05,1.32-.05,1.95-.16.66-.11,1.03-.63,1.1-1.36.06-.66-.17-1.17-.68-1.38-.76-.3-1.56-.16-2.36-.19v3.09Z"/>
</svg>