<svg width="30" height="31" viewBox="0 0 30 31" fill="none" xmlns="http://www.w3.org/2000/svg">
<path d="M27.6667 7.36796H24.4849V1.14095C24.4849 0.546773 24.0371 0.0650024 23.4848 0.0650024H6.51516C5.96291 0.0650024 5.51514 0.54671 5.51514 1.14095V7.36796H2.33332C1.04672 7.36796 0 8.49422 0 9.8785V20.703C0 22.0873 1.04672 23.2135 2.33332 23.2135H5.51531V28.9891C5.51531 29.5832 5.96303 30.065 6.51533 30.065H23.4847C24.0369 30.065 24.4847 29.5833 24.4847 28.9891V23.2135H27.6667C28.9533 23.2135 30 22.0873 30 20.703V9.8785C30 8.49428 28.9533 7.36796 27.6667 7.36796ZM7.51512 2.21689H22.4848V7.36796H7.51512V2.21689ZM22.4846 27.9131H7.51535V19.1106H22.4847L22.4846 27.9131ZM28 20.7031C27.9999 20.7982 27.9648 20.8893 27.9023 20.9566C27.8398 21.0238 27.7551 21.0616 27.6667 21.0617H24.4847V18.0348C24.4847 17.4406 24.037 16.9589 23.4847 16.9589H6.51533C5.96309 16.9589 5.51531 17.4406 5.51531 18.0348V21.0617H2.33332C2.24494 21.0616 2.16021 21.0238 2.09772 20.9566C2.03522 20.8893 2.00007 20.7982 1.99998 20.7031V9.87856C2.00007 9.78348 2.03522 9.69231 2.09772 9.62507C2.16021 9.55783 2.24494 9.52002 2.33332 9.51992H27.6667C27.7551 9.52002 27.8398 9.55783 27.9023 9.62507C27.9648 9.69231 27.9999 9.78348 28 9.87856V20.7031Z" fill="black"/>
<path d="M23.4848 11.5339H20.9393C20.3871 11.5339 19.9393 12.0156 19.9393 12.6098C19.9393 13.2041 20.387 13.6858 20.9393 13.6858H23.4848C24.0371 13.6858 24.4849 13.2041 24.4849 12.6098C24.4849 12.0156 24.0371 11.5339 23.4848 11.5339ZM19.3333 24.1327H10.6666C10.1144 24.1327 9.66661 24.6144 9.66661 25.2086C9.66661 25.8028 10.1143 26.2845 10.6666 26.2845H19.3333C19.8855 26.2845 20.3333 25.8028 20.3333 25.2086C20.3333 24.6144 19.8856 24.1327 19.3333 24.1327ZM19.3333 20.7392H10.6666C10.1144 20.7392 9.66661 21.2209 9.66661 21.8151C9.66661 22.4094 10.1143 22.8911 10.6666 22.8911H19.3333C19.8855 22.8911 20.3333 22.4094 20.3333 21.8151C20.3333 21.2209 19.8856 20.7392 19.3333 20.7392Z" fill="black"/>
</svg>
