<svg width="21" height="24" viewBox="0 0 21 24" fill="none" xmlns="http://www.w3.org/2000/svg">
<g clip-path="url(#clip0_3385_1177)">
<path d="M20.2263 16.6119C19.7849 16.6176 19.4421 16.9897 19.4421 17.4647C19.4369 18.2775 19.4369 19.0902 19.4421 19.9029C19.4421 20.4867 19.4421 21.0762 19.4421 21.66V21.6829H1.56306V20.9503C1.56306 19.7541 1.56306 18.5922 1.56306 17.4304C1.56306 16.9553 1.19436 16.5833 0.778932 16.5776C0.34273 16.5776 0 16.9668 0 17.4418C0.00519288 18.598 0.00519288 19.7541 0 20.9446V22.5357C0 23.0108 0.347923 23.3942 0.778932 23.3942H20.1691C20.5846 23.3942 20.9221 23.0394 20.9481 22.5815L20.9637 22.3125C20.9792 22.0893 20.9896 21.8775 20.9896 21.66C20.9896 21.0705 20.9896 20.481 20.9896 19.8972C20.9896 19.0902 20.9896 18.2832 20.9896 17.4762C20.9896 17.0011 20.6469 16.6119 20.2159 16.6119H20.2263Z" fill="#494D6B"/>
<path d="M4.6528 9.38889L9.72105 3.35061V16.7321C9.72105 17.2072 10.069 17.5906 10.5 17.5906C10.931 17.5906 11.2789 17.2072 11.2789 16.7321V3.35061L16.3524 9.39461C16.6432 9.74374 17.1365 9.76664 17.4532 9.4404C17.6194 9.2687 17.7025 9.03976 17.7025 8.81082C17.7025 8.60477 17.635 8.393 17.4948 8.22702L11.0712 0.574715C10.9258 0.397287 10.7181 0.299988 10.5 0.299988C10.2819 0.299988 10.0742 0.397287 9.92877 0.574715L3.50518 8.22702C3.21438 8.57615 3.22995 9.11988 3.54672 9.4404C3.86349 9.76092 4.35681 9.74374 4.64761 9.39461L4.6528 9.38889Z" fill="#494D6B"/>
</g>
<defs>
<clipPath id="clip0_3385_1177">
<rect width="21" height="23.1" fill="white" transform="translate(0 0.299988)"/>
</clipPath>
</defs>
</svg>
