<svg width="31" height="31" viewBox="0 0 31 31" fill="none" xmlns="http://www.w3.org/2000/svg">
<path d="M0.869111 15.2077C0.868406 17.7556 1.53414 20.2434 2.80003 22.4362L0.748047 29.9283L8.4153 27.9179C10.536 29.0724 12.912 29.6773 15.3266 29.6775H15.3329C23.3038 29.6775 29.7922 23.1913 29.7956 15.2191C29.7972 11.3559 28.2941 7.72331 25.5632 4.99031C22.8328 2.25755 19.2014 0.751763 15.3323 0.75C7.36051 0.75 0.87252 7.23576 0.869229 15.2077" fill="url(#paint0_linear_768_12928)"/>
<path d="M0.352817 15.2028C0.351994 17.8424 1.04159 20.4192 2.35261 22.6905L0.227051 30.4512L8.16923 28.3687C10.3576 29.5619 12.8214 30.1909 15.3285 30.1919H15.3349C23.5918 30.1919 30.3133 23.4725 30.3168 15.2148C30.3183 11.2129 28.7611 7.44964 25.9327 4.61873C23.1039 1.78818 19.3426 0.228208 15.3349 0.226562C7.07671 0.226562 0.356108 6.94505 0.352817 15.2028ZM5.08267 22.2993L4.78612 21.8286C3.53951 19.8464 2.88153 17.5558 2.88247 15.2038C2.88506 8.34011 8.47095 2.75599 15.3397 2.75599C18.666 2.7574 21.792 4.05408 24.1433 6.40672C26.4944 8.7596 27.7881 11.8873 27.7873 15.2139C27.7842 22.0775 22.1982 27.6623 15.3349 27.6623H15.33C13.0953 27.6612 10.9035 27.061 8.99211 25.9269L8.53724 25.6571L3.82419 26.8928L5.08267 22.2993Z" fill="url(#paint1_linear_768_12928)"/>
<path d="M11.5904 8.94068C11.3099 8.31737 11.0148 8.3048 10.7481 8.29387C10.5297 8.28446 10.28 8.28517 10.0306 8.28517C9.78097 8.28517 9.37534 8.37908 9.03248 8.75344C8.68927 9.12815 7.72217 10.0337 7.72217 11.8754C7.72217 13.7171 9.06363 15.4971 9.25064 15.7471C9.43787 15.9966 11.8404 19.897 15.6453 21.3975C18.8076 22.6445 19.4511 22.3965 20.1374 22.3339C20.8238 22.2716 22.3523 21.4286 22.6641 20.5545C22.9762 19.6805 22.9762 18.9313 22.8826 18.7748C22.789 18.6188 22.5394 18.5251 22.165 18.338C21.7907 18.1509 19.9501 17.2451 19.607 17.1202C19.2638 16.9953 19.0143 16.933 18.7647 17.3079C18.515 17.6821 17.7981 18.5251 17.5796 18.7748C17.3614 19.025 17.1429 19.0561 16.7686 18.8689C16.394 18.6811 15.1884 18.2863 13.7581 17.0111C12.6453 16.0188 11.894 14.7935 11.6756 14.4187C11.4572 14.0444 11.6522 13.8416 11.8399 13.655C12.0081 13.4873 12.2144 13.2179 12.4017 12.9994C12.5884 12.7808 12.6507 12.6248 12.7755 12.3751C12.9004 12.1253 12.8379 11.9066 12.7445 11.7194C12.6507 11.5322 11.9232 9.68082 11.5904 8.94068Z" fill="white"/>
<defs>
<linearGradient id="paint0_linear_768_12928" x1="1453.13" y1="2918.58" x2="1453.13" y2="0.75" gradientUnits="userSpaceOnUse">
<stop stop-color="#1FAF38"/>
<stop offset="1" stop-color="#60D669"/>
</linearGradient>
<linearGradient id="paint1_linear_768_12928" x1="1504.72" y1="3022.69" x2="1504.72" y2="0.226562" gradientUnits="userSpaceOnUse">
<stop stop-color="#F9F9F9"/>
<stop offset="1" stop-color="white"/>
</linearGradient>
</defs>
</svg>
